<?xml version="1.0" standalone="no"?>
<!DOCTYPE svg PUBLIC "-//W3C//DTD SVG 20010904//EN"
 "http://www.w3.org/TR/2001/REC-SVG-20010904/DTD/svg10.dtd">
<svg version="1.0" xmlns="http://www.w3.org/2000/svg"
 width="960.000000pt" height="1280.000000pt" viewBox="0 0 960.000000 1280.000000"
 preserveAspectRatio="xMidYMid meet">
<metadata>
Created by potrace 1.15, written by Peter Selinger 2001-2017
</metadata>
<g transform="translate(0.000000,1280.000000) scale(0.100000,-0.100000)"
fill="#0c2e54" stroke="none">
<path d="M4510 10899 c-30 -4 -98 -13 -150 -19 -90 -10 -118 -15 -250 -42
-335 -68 -641 -201 -890 -387 -107 -79 -274 -251 -350 -359 -213 -302 -281
-561 -251 -962 25 -331 81 -553 198 -782 104 -205 268 -401 467 -559 122 -97
136 -113 136 -150 0 -29 -23 -49 -57 -49 -9 0 -103 52 -208 115 -417 250 -761
399 -1025 444 -216 36 -279 39 -430 16 -110 -16 -118 -18 -225 -52 -386 -123
-737 -473 -945 -943 -97 -217 -178 -513 -210 -760 -6 -47 -15 -115 -21 -152
-12 -86 -12 -458 0 -529 5 -30 15 -92 21 -139 31 -233 117 -539 212 -760 294
-676 779 -1139 1343 -1279 136 -33 374 -43 551 -21 457 55 881 267 1253 626
240 231 423 479 598 813 39 75 87 155 108 178 61 72 141 79 181 17 24 -36 30
-202 15 -465 -50 -901 -233 -1650 -503 -2054 -130 -195 -268 -310 -440 -365
-106 -34 -155 -106 -110 -158 57 -68 339 -158 602 -192 206 -27 298 -32 675
-37 384 -5 463 -2 795 28 334 30 450 72 450 162 0 49 -31 86 -120 144 -102 66
-278 240 -372 366 -282 380 -504 951 -602 1547 -56 345 -82 745 -54 844 23 82
71 106 135 66 49 -30 95 -99 189 -285 146 -288 279 -471 524 -715 458 -459
971 -732 1503 -800 433 -55 886 115 1266 475 283 268 543 717 661 1140 49 175
82 332 99 475 7 52 16 123 22 156 12 83 12 587 -2 693 -36 296 -74 488 -127
656 -93 287 -230 523 -407 700 -192 192 -377 289 -663 345 -79 15 -371 12
-492 -5 -159 -23 -167 -25 -279 -57 -261 -74 -452 -189 -688 -410 -61 -58
-123 -108 -138 -112 -39 -10 -75 16 -75 55 0 38 11 58 113 216 285 438 439
762 530 1113 45 175 63 286 78 493 29 386 -43 695 -228 975 -215 326 -649 570
-1188 671 -135 26 -230 40 -335 50 -63 7 -151 16 -195 21 -94 12 -615 11 -695
-1z"/>
</g>
</svg>
